<svg xmlns="http://www.w3.org/2000/svg" viewBox="0 0 760 420" font-family="system-ui, -apple-system, Segoe UI, sans-serif">
<rect width="760" height="420" fill="#fcfcfb" rx="8"/>
<text x="56" y="20" font-size="12.5" fill="#52514e" font-weight="600">DeepSeek-R1 FP4 — KV over GPUDirect RDMA — total throughput per GPU (tok/s)</text>
<line x1="568" x2="586" y1="14" y2="14" stroke="#2a78d6" stroke-width="2"/>
<circle cx="577" cy="14" r="3.2" fill="#fcfcfb" stroke="#2a78d6" stroke-width="1.8"/>
<text x="590" y="18" font-size="10.5" fill="#52514e">Ours: GKE, RDMA KV</text>
<line x1="568" x2="586" y1="29" y2="29" stroke="#eb6834" stroke-width="2"/>
<circle cx="577" cy="29" r="3.2" fill="#fcfcfb" stroke="#eb6834" stroke-width="1.8"/>
<text x="590" y="33" font-size="10.5" fill="#52514e">InferenceMax (published)</text>
<line x1="56" x2="736" y1="384.0" y2="384.0" stroke="#e1e0d9" stroke-width="1"/>
<text x="50" y="387.5" font-size="10.5" fill="#898781" text-anchor="end">0</text>
<line x1="56" x2="736" y1="298.7" y2="298.7" stroke="#e1e0d9" stroke-width="1"/>
<text x="50" y="302.2" font-size="10.5" fill="#898781" text-anchor="end">2k</text>
<line x1="56" x2="736" y1="213.5" y2="213.5" stroke="#e1e0d9" stroke-width="1"/>
<text x="50" y="217.0" font-size="10.5" fill="#898781" text-anchor="end">4k</text>
<line x1="56" x2="736" y1="128.2" y2="128.2" stroke="#e1e0d9" stroke-width="1"/>
<text x="50" y="131.7" font-size="10.5" fill="#898781" text-anchor="end">6k</text>
<line x1="56.0" x2="56.0" y1="384" y2="388" stroke="#898781" stroke-width="1"/>
<text x="56.0" y="400" font-size="10.5" fill="#898781" text-anchor="middle">0</text>
<line x1="244.6" x2="244.6" y1="384" y2="388" stroke="#898781" stroke-width="1"/>
<text x="244.6" y="400" font-size="10.5" fill="#898781" text-anchor="middle">50</text>
<line x1="433.1" x2="433.1" y1="384" y2="388" stroke="#898781" stroke-width="1"/>
<text x="433.1" y="400" font-size="10.5" fill="#898781" text-anchor="middle">100</text>
<line x1="621.7" x2="621.7" y1="384" y2="388" stroke="#898781" stroke-width="1"/>
<text x="621.7" y="400" font-size="10.5" fill="#898781" text-anchor="middle">150</text>
<line x1="56" x2="736" y1="384" y2="384" stroke="#898781" stroke-width="1"/>
<text x="396.0" y="414" font-size="11" fill="#52514e" text-anchor="middle">Interactivity (tok/s/user, 1000 / mean TPOT)</text>
<polyline points="276.2,80.4 333.9,188.1 340.6,169.6 344.3,270.9 369.6,294.7 469.0,325.4 588.2,364.5 616.2,373.5" fill="none" stroke="#eb6834" stroke-width="2" stroke-linejoin="round"/>
<circle cx="276.2" cy="80.4" r="3.6" fill="#fcfcfb" stroke="#eb6834" stroke-width="1.8"/>
<circle cx="333.9" cy="188.1" r="3.6" fill="#fcfcfb" stroke="#eb6834" stroke-width="1.8"/>
<circle cx="340.6" cy="169.6" r="3.6" fill="#fcfcfb" stroke="#eb6834" stroke-width="1.8"/>
<circle cx="344.3" cy="270.9" r="3.6" fill="#fcfcfb" stroke="#eb6834" stroke-width="1.8"/>
<circle cx="369.6" cy="294.7" r="3.6" fill="#fcfcfb" stroke="#eb6834" stroke-width="1.8"/>
<circle cx="469.0" cy="325.4" r="3.6" fill="#fcfcfb" stroke="#eb6834" stroke-width="1.8"/>
<circle cx="588.2" cy="364.5" r="3.6" fill="#fcfcfb" stroke="#eb6834" stroke-width="1.8"/>
<circle cx="616.2" cy="373.5" r="3.6" fill="#fcfcfb" stroke="#eb6834" stroke-width="1.8"/>
<polyline points="267.3,82.1 327.9,171.4 330.3,172.2 352.9,258.4 387.6,291.7 484.3,324.5 630.4,362.9 663.1,372.6" fill="none" stroke="#2a78d6" stroke-width="2" stroke-linejoin="round"/>
<circle cx="267.3" cy="82.1" r="3.6" fill="#fcfcfb" stroke="#2a78d6" stroke-width="1.8"/>
<text x="273.3" y="76.1" font-size="9.5" fill="#898781">p8(c2,048)</text>
<circle cx="327.9" cy="171.4" r="3.6" fill="#fcfcfb" stroke="#2a78d6" stroke-width="1.8"/>
<text x="333.9" y="165.4" font-size="9.5" fill="#898781">p7(c4,096)</text>
<circle cx="330.3" cy="172.2" r="3.6" fill="#fcfcfb" stroke="#2a78d6" stroke-width="1.8"/>
<text x="266.3" y="166.2" font-size="9.5" fill="#898781">p6(c2,048)</text>
<circle cx="352.9" cy="258.4" r="3.6" fill="#fcfcfb" stroke="#2a78d6" stroke-width="1.8"/>
<text x="358.9" y="252.4" font-size="9.5" fill="#898781">p5(c512)</text>
<circle cx="387.6" cy="291.7" r="3.6" fill="#fcfcfb" stroke="#2a78d6" stroke-width="1.8"/>
<text x="393.6" y="285.7" font-size="9.5" fill="#898781">p4(c64)</text>
<circle cx="484.3" cy="324.5" r="3.6" fill="#fcfcfb" stroke="#2a78d6" stroke-width="1.8"/>
<text x="490.3" y="318.5" font-size="9.5" fill="#898781">p3(c32)</text>
<circle cx="630.4" cy="362.9" r="3.6" fill="#fcfcfb" stroke="#2a78d6" stroke-width="1.8"/>
<text x="636.4" y="356.9" font-size="9.5" fill="#898781">p2(c8)</text>
<circle cx="663.1" cy="372.6" r="3.6" fill="#fcfcfb" stroke="#2a78d6" stroke-width="1.8"/>
<text x="669.1" y="346.6" font-size="9.5" fill="#898781">p1(c4)</text>
</svg>