<svg xmlns="http://www.w3.org/2000/svg" viewBox="0 0 760 420" font-family="system-ui, -apple-system, Segoe UI, sans-serif">
<rect width="760" height="420" fill="#fcfcfb" rx="8"/>
<text x="56" y="20" font-size="12.5" fill="#52514e" font-weight="600">DeepSeek-R1 FP4 — KV over GPUDirect RDMA — total throughput per GPU (tok/s)</text>
<line x1="568" x2="586" y1="14" y2="14" stroke="#2a78d6" stroke-width="2"/>
<circle cx="577" cy="14" r="3.2" fill="#fcfcfb" stroke="#2a78d6" stroke-width="1.8"/>
<text x="590" y="18" font-size="10.5" fill="#52514e">Ours: GKE, RDMA KV</text>
<line x1="568" x2="586" y1="29" y2="29" stroke="#eb6834" stroke-width="2"/>
<circle cx="577" cy="29" r="3.2" fill="#fcfcfb" stroke="#eb6834" stroke-width="1.8"/>
<text x="590" y="33" font-size="10.5" fill="#52514e">InferenceMax (published)</text>
<line x1="56" x2="736" y1="384.0" y2="384.0" stroke="#e1e0d9" stroke-width="1"/>
<text x="50" y="387.5" font-size="10.5" fill="#898781" text-anchor="end">0</text>
<line x1="56" x2="736" y1="298.7" y2="298.7" stroke="#e1e0d9" stroke-width="1"/>
<text x="50" y="302.2" font-size="10.5" fill="#898781" text-anchor="end">2k</text>
<line x1="56" x2="736" y1="213.5" y2="213.5" stroke="#e1e0d9" stroke-width="1"/>
<text x="50" y="217.0" font-size="10.5" fill="#898781" text-anchor="end">4k</text>
<line x1="56" x2="736" y1="128.2" y2="128.2" stroke="#e1e0d9" stroke-width="1"/>
<text x="50" y="131.7" font-size="10.5" fill="#898781" text-anchor="end">6k</text>
<line x1="220.7" x2="220.7" y1="384" y2="388" stroke="#898781" stroke-width="1"/>
<text x="220.7" y="400" font-size="10.5" fill="#898781" text-anchor="middle">10</text>
<line x1="444.5" x2="444.5" y1="384" y2="388" stroke="#898781" stroke-width="1"/>
<text x="444.5" y="400" font-size="10.5" fill="#898781" text-anchor="middle">30</text>
<line x1="56" x2="736" y1="384" y2="384" stroke="#898781" stroke-width="1"/>
<text x="396.0" y="414" font-size="11" fill="#52514e" text-anchor="middle">Median end-to-end latency (s, log scale)</text>
<polyline points="129.8,373.5 147.8,364.5 201.3,325.4 257.5,294.7 305.2,270.9 418.4,80.4 523.8,169.6 674.9,188.1" fill="none" stroke="#eb6834" stroke-width="2" stroke-linejoin="round"/>
<circle cx="129.8" cy="373.5" r="3.6" fill="#fcfcfb" stroke="#eb6834" stroke-width="1.8"/>
<circle cx="147.8" cy="364.5" r="3.6" fill="#fcfcfb" stroke="#eb6834" stroke-width="1.8"/>
<circle cx="201.3" cy="325.4" r="3.6" fill="#fcfcfb" stroke="#eb6834" stroke-width="1.8"/>
<circle cx="257.5" cy="294.7" r="3.6" fill="#fcfcfb" stroke="#eb6834" stroke-width="1.8"/>
<circle cx="305.2" cy="270.9" r="3.6" fill="#fcfcfb" stroke="#eb6834" stroke-width="1.8"/>
<circle cx="418.4" cy="80.4" r="3.6" fill="#fcfcfb" stroke="#eb6834" stroke-width="1.8"/>
<circle cx="523.8" cy="169.6" r="3.6" fill="#fcfcfb" stroke="#eb6834" stroke-width="1.8"/>
<circle cx="674.9" cy="188.1" r="3.6" fill="#fcfcfb" stroke="#eb6834" stroke-width="1.8"/>
<polyline points="117.1,372.6 135.0,362.9 198.7,324.5 249.3,291.7 285.5,258.4 426.3,82.1 512.3,172.2 659.1,171.4" fill="none" stroke="#2a78d6" stroke-width="2" stroke-linejoin="round"/>
<circle cx="117.1" cy="372.6" r="3.6" fill="#fcfcfb" stroke="#2a78d6" stroke-width="1.8"/>
<text x="75.5" y="366.6" font-size="9.5" fill="#898781">p1(c4)</text>
<circle cx="135.0" cy="362.9" r="3.6" fill="#fcfcfb" stroke="#2a78d6" stroke-width="1.8"/>
<text x="141.0" y="356.9" font-size="9.5" fill="#898781">p2(c8)</text>
<circle cx="198.7" cy="324.5" r="3.6" fill="#fcfcfb" stroke="#2a78d6" stroke-width="1.8"/>
<text x="204.7" y="318.5" font-size="9.5" fill="#898781">p3(c32)</text>
<circle cx="249.3" cy="291.7" r="3.6" fill="#fcfcfb" stroke="#2a78d6" stroke-width="1.8"/>
<text x="255.3" y="285.7" font-size="9.5" fill="#898781">p4(c64)</text>
<circle cx="285.5" cy="258.4" r="3.6" fill="#fcfcfb" stroke="#2a78d6" stroke-width="1.8"/>
<text x="291.5" y="252.4" font-size="9.5" fill="#898781">p5(c512)</text>
<circle cx="426.3" cy="82.1" r="3.6" fill="#fcfcfb" stroke="#2a78d6" stroke-width="1.8"/>
<text x="432.3" y="76.1" font-size="9.5" fill="#898781">p8(c2,048)</text>
<circle cx="512.3" cy="172.2" r="3.6" fill="#fcfcfb" stroke="#2a78d6" stroke-width="1.8"/>
<text x="518.3" y="166.2" font-size="9.5" fill="#898781">p6(c2,048)</text>
<circle cx="659.1" cy="171.4" r="3.6" fill="#fcfcfb" stroke="#2a78d6" stroke-width="1.8"/>
<text x="665.1" y="165.4" font-size="9.5" fill="#898781">p7(c4,096)</text>
</svg>